<svg xmlns="http://www.w3.org/2000/svg" version="1.1" xmlns:xlink="http://www.w3.org/1999/xlink" xmlns:svgjs="http://svgjs.dev/svgjs" width="1440" height="560" preserveAspectRatio="none" viewBox="0 0 1440 560"><g mask="url(&quot;#SvgjsMask1002&quot;)" fill="none"><rect width="1440" height="560" x="0" y="0" fill="rgba(212, 215, 217, 1)"></rect><path d="M0,536.938C106.009,565.466,242.547,575.936,320.372,498.509C400.756,418.535,324.226,272.713,369.899,168.927C414.505,67.564,589.178,27.136,576.207,-82.846C563.363,-191.753,397.057,-199.634,317.528,-275.139C248.985,-340.214,235.402,-466.232,144.635,-492.582C53.843,-518.939,-25.079,-419.469,-117.905,-401.548C-225.256,-380.823,-350.542,-444.884,-438.537,-379.995C-526.667,-315.006,-537.386,-187.882,-554.354,-79.704C-571.5,29.613,-603.623,157.02,-536.573,245.045C-468.869,333.929,-324.048,298.111,-225.898,351.504C-138.552,399.02,-96.018,511.099,0,536.938" fill="#a7adb1"></path><path d="M1440 968.592C1519.892 958.881 1596.542 949.441 1671.576 920.3389999999999 1762.988 884.885 1880.31 868.817 1923.807 780.947 1967.2089999999998 693.268 1917.422 587.487 1881.3609999999999 496.54200000000003 1851.071 420.15 1791.5529999999999 363.994 1734.882 304.483 1680.932 247.829 1632.151 182.942 1558.259 157.247 1482.619 130.94400000000002 1400.495 141.38299999999998 1322.909 161.224 1243.177 181.61399999999998 1167.973 215.949 1108.066 272.377 1043.844 332.87 981.721 404.998 971.1179999999999 492.585 960.5830000000001 579.612 1018.867 656.045 1051.786 737.2909999999999 1086.394 822.7049999999999 1090.005 934.238 1169.1770000000001 981.409 1248.422 1028.624 1348.43 979.723 1440 968.592" fill="#ffffff"></path></g><defs><mask id="SvgjsMask1002"><rect width="1440" height="560" fill="#ffffff"></rect></mask></defs></svg>